<?xml version="1.0" encoding="utf-8"?>
<!-- Generator: Adobe Illustrator 19.0.1, SVG Export Plug-In . SVG Version: 6.00 Build 0)  -->
<!DOCTYPE svg PUBLIC "-//W3C//DTD SVG 1.1//EN" "http://www.w3.org/Graphics/SVG/1.1/DTD/svg11.dtd">
<svg version="1.1" id="Layer_1" xmlns="http://www.w3.org/2000/svg" xmlns:xlink="http://www.w3.org/1999/xlink" x="0px" y="0px"
	 viewBox="-147 390.9 300 60" style="enable-background:new -147 390.9 300 60;" xml:space="preserve">
<style type="text/css">
	.st0{fill:#149DB6;}
</style>
<g>
	<g>
		<polygon class="st0" points="-142.1,402.6 -106.3,438.5 -106.4,438.5 -115.8,438.5 -115.9,438.4 -135.3,419 -135.3,419.5 
			-135.3,438.4 -142.1,438.4 -142.1,402.7 		"/>
	</g>
	<g>
		<polygon class="st0" points="-126,430.9 -121.2,435.7 -121.2,435.7 -123.9,438.5 -124,438.5 -133.2,438.5 -133.5,438.5 		"/>
	</g>
	<g>
		<polygon class="st0" points="-114.7,407.7 -109.9,412.5 -114.7,417.3 -119.7,412.3 -119.8,412.2 -120,412.5 -124.9,417.3 
			-129.7,412.5 -119.8,402.6 -115.1,407.4 		"/>
	</g>
	<g>
		<polygon class="st0" points="-104.5,419.1 -104.5,419.3 -104.5,438.5 -97.7,438.5 -97.7,402.9 -97.7,402.7 -98.8,403.7 
			-118.6,423.5 -118.6,423.5 -118.6,423.6 -114.3,427.9 -113.8,428.3 -113.8,428.3 -105,419.5 		"/>
	</g>
</g>
<path class="st0" d="M-71.6,432.7c-2.4,0.5-4.6,0.7-6.5,0.7s-3.5-0.2-4.6-0.7c-1.2-0.4-2.1-1.1-2.7-2.1c-0.7-1-1.1-2.1-1.4-3.4
	c-0.3-1.3-0.4-2.9-0.4-4.9c0-4.1,0.6-7,1.9-8.6s3.6-2.4,7-2.4c2,0,4.2,0.3,6.8,0.8l-0.1,3.4c-2.3-0.3-4.1-0.5-5.6-0.5
	s-2.6,0.2-3.2,0.5c-0.6,0.4-1.1,1.1-1.4,2.1s-0.5,2.8-0.5,5.2c0,2.5,0.3,4.2,0.9,5.1c0.6,0.9,1.9,1.4,3.8,1.4s3.9-0.1,6-0.4
	L-71.6,432.7z"/>
<path class="st0" d="M-63.3,425.9c0,2.5,1.4,3.7,4.1,3.7c2.8,0,4.1-1.2,4.1-3.7v-14.2h4.7v14.1c0,2.6-0.7,4.5-2.2,5.7
	c-1.5,1.2-3.7,1.8-6.6,1.8c-3,0-5.2-0.6-6.6-1.8c-1.5-1.2-2.2-3.1-2.2-5.7v-14.1h4.7V425.9z"/>
<path class="st0" d="M-38.3,415.1c-2.5,0-3.7,0.8-3.7,2.3c0,0.7,0.3,1.2,0.9,1.5c0.6,0.4,2.1,0.9,4.3,1.5c2.3,0.7,3.9,1.4,4.8,2.3
	c0.9,0.8,1.4,2.1,1.4,3.9c0,2.2-0.7,3.9-2.2,5.1c-1.5,1.1-3.4,1.7-5.8,1.7c-1.8,0-3.9-0.3-6.5-0.8l-1.2-0.2l0.5-3.3
	c3,0.4,5.4,0.6,7,0.6c2.4,0,3.6-0.9,3.6-2.8c0-0.7-0.3-1.2-0.8-1.6c-0.6-0.4-1.7-0.8-3.3-1.2c-2.6-0.7-4.5-1.5-5.6-2.5
	c-1.1-0.9-1.6-2.3-1.6-4c0-2.1,0.7-3.7,2.1-4.8c1.4-1,3.3-1.6,5.8-1.6c1.7,0,3.8,0.2,6.4,0.6l1.2,0.2l-0.4,3.4
	C-34.8,415.3-37,415.1-38.3,415.1z"/>
<path class="st0" d="M-29,415.6v-3.8h17.1v3.8H-18v17.5h-4.7v-17.5H-29z"/>
<path class="st0" d="M6.9,430.8c-1.4,1.8-3.9,2.6-7.5,2.6c-3.5,0-6-0.9-7.5-2.6c-1.4-1.8-2.2-4.5-2.2-8.3c0-3.8,0.7-6.5,2.2-8.4
	c1.4-1.8,3.9-2.7,7.5-2.7c3.5,0,6,0.9,7.5,2.7c1.4,1.8,2.2,4.6,2.2,8.4C9.1,426.3,8.3,429,6.9,430.8z M-4.3,428
	c0.7,1.1,1.9,1.6,3.8,1.6c1.8,0,3.1-0.5,3.8-1.6c0.7-1.1,1-2.9,1-5.5s-0.3-4.4-1-5.6c-0.7-1.2-1.9-1.8-3.8-1.8
	c-1.8,0-3.1,0.6-3.8,1.8c-0.7,1.2-1,3-1,5.6S-5,426.9-4.3,428z"/>
<path class="st0" d="M13.1,433v-21.3h8l4.1,15.5l4.1-15.5h8V433h-4.7v-16.4h-0.5l-4.5,15.5h-4.7l-4.5-15.5h-0.5v16.5h-4.8V433z"/>
<path class="st0" d="M47.1,433h-4.7v-21.3h4.7v9.4l3.1-0.3l3.8-9h5.4l-5,10.7l5.2,10.6h-5.4l-3.9-8.5l-3.1,0.3v8.1H47.1z"/>
<path class="st0" d="M62.6,433v-21.3h4.7V433H62.6z"/>
<path class="st0" d="M72.3,433v-21.3h7.9l5.6,17.5h0.3v-17.5h4.7V433h-7.7l-5.8-17.5H77V433H72.3z"/>
<path class="st0" d="M105.6,425.4v-3.8h6.8v11c-3.3,0.5-5.9,0.7-7.9,0.7c-3.6,0-6.1-0.9-7.5-2.7c-1.4-1.8-2-4.6-2-8.5
	s0.7-6.6,2.1-8.4c1.4-1.7,3.8-2.6,7.2-2.6c2.1,0,4.4,0.2,6.9,0.7l1.2,0.2l-0.1,3.3c-2.7-0.3-5-0.4-6.7-0.4s-3,0.2-3.7,0.6
	c-0.7,0.4-1.2,1.1-1.6,2.1c-0.3,1-0.5,2.7-0.5,5.2s0.3,4.2,1,5.1c0.7,1,2,1.5,4.1,1.5l2.8-0.1v-4.1h-2.1V425.4z"/>
</svg>
