<?xml version="1.0" encoding="utf-8"?>
<!-- Generator: Adobe Illustrator 19.0.0, SVG Export Plug-In . SVG Version: 6.00 Build 0)  -->
<svg version="1.1" id="Layer_1" xmlns="http://www.w3.org/2000/svg" xmlns:xlink="http://www.w3.org/1999/xlink" x="0px" y="0px"
	 viewBox="0 0 397.6 29.3" style="enable-background:new 0 0 397.6 29.3;" xml:space="preserve">
<style type="text/css">
	.st0{fill:#434244;}
</style>
<g>
	<path class="st0" d="M5.4,28.3V1h5.3v22.2h12.2v5.1H5.4z"/>
	<path class="st0" d="M46.1,0.4c7.4,0,14,5.4,14,14.2c0,8.8-6.6,14.2-14,14.2c-7.4,0-14-5.4-14-14.2C32.1,5.9,38.8,0.4,46.1,0.4z
		 M46.1,23.7c4.2,0,8.5-2.9,8.5-9.1c0-6.2-4.3-9.1-8.5-9.1c-4.2,0-8.5,2.9-8.5,9.1C37.6,20.8,41.9,23.7,46.1,23.7z"/>
	<path class="st0" d="M88.9,1h5.6L84.4,28.3h-5.5L68.8,1h5.8l7.1,20.3L88.9,1z"/>
	<path class="st0" d="M105.7,28.3V1h17.1v5H111v6.2h10.7V17H111v6.3h11.8v5H105.7z"/>
	<path class="st0" d="M166.5,25.3c-2,2.1-4.4,3.5-7.3,3.5c-5.3,0-8.3-3.7-8.3-7.3c0-3.4,1.8-5.4,4.7-7.5l0.2-0.1l-0.4-0.5
		c-1.3-1.4-3-3.5-3-5.9c0-4.6,3.8-7.1,7.5-7.1c4.3,0,7.6,2.8,7.6,6.9c0,2.8-1.9,4.8-3.8,6.2l-1,0.8l4.1,4.4l6.9-7.2v6.4l-3.8,4
		l6.2,6.5h-6.6L166.5,25.3z M163.4,22.1l-4.7-4.9l-0.6,0.4c-1.3,1-2.2,2-2.2,3.6c0,1.6,1.3,3.2,3.3,3.2
		C160.9,24.3,162.1,23.4,163.4,22.1z M158.8,10.3l0.7,0.8l1.4-1c1.3-0.9,1.7-1.9,1.7-2.9c0-1.5-1.1-2.6-2.8-2.6
		c-1.3,0-2.7,0.9-2.7,2.7C157.2,8.5,158.1,9.6,158.8,10.3z"/>
	<path class="st0" d="M210.5,17.8h-2.8v10.5h-5.4V1h10.7c5.3,0,8.7,3.7,8.7,8.4c0,3.8-2.2,6.7-5.8,7.7l5.9,11.2h-5.9L210.5,17.8z
		 M212.1,13.2c2.7,0,4.3-1.5,4.3-3.8c0-2.3-1.6-3.8-4.3-3.8h-4.3v7.6H212.1z"/>
	<path class="st0" d="M246.4,0.4c7.4,0,14,5.4,14,14.2c0,8.8-6.6,14.2-14,14.2c-7.4,0-14-5.4-14-14.2C232.4,5.9,239,0.4,246.4,0.4z
		 M246.4,23.7c4.2,0,8.5-2.9,8.5-9.1c0-6.2-4.3-9.1-8.5-9.1c-4.2,0-8.5,2.9-8.5,9.1C237.9,20.8,242.2,23.7,246.4,23.7z"/>
	<path class="st0" d="M282.5,1c5.3,0,8.3,3.1,8.3,7.4c0,2.8-1.7,5.1-4,5.8c2.7,0.7,4.8,3.1,4.8,6.5c0,4.4-3.3,7.6-8.4,7.6h-10.5V1
		H282.5z M281.7,12.3c2.4,0,3.9-1.4,3.9-3.4c0-2.1-1.4-3.4-3.9-3.4H278v6.8H281.7z M282.3,23.9c2.6,0,4.1-1.3,4.1-3.5
		c0-2.2-1.4-3.7-4-3.7H278v7.2H282.3z"/>
	<path class="st0" d="M316.3,0.4c7.4,0,14,5.4,14,14.2c0,8.8-6.6,14.2-14,14.2c-7.4,0-14-5.4-14-14.2C302.3,5.9,308.9,0.4,316.3,0.4
		z M316.3,23.7c4.2,0,8.5-2.9,8.5-9.1c0-6.2-4.3-9.1-8.5-9.1c-4.2,0-8.5,2.9-8.5,9.1C307.8,20.8,312.1,23.7,316.3,23.7z"/>
	<path class="st0" d="M353.4,6.1v22.2h-5.3V6.1h-8.6V1H362v5H353.4z"/>
	<path class="st0" d="M387,9c-0.3-1.5-1.5-3.8-5-3.8c-2.6,0-4.3,1.7-4.3,3.5c0,1.5,1,2.7,3,3.1l3.8,0.7c5,1,7.6,4.2,7.6,8
		c0,4.2-3.5,8.4-9.9,8.4c-7.2,0-10.4-4.7-10.9-8.5l4.9-1.3c0.2,2.7,2.1,5.1,6,5.1c2.8,0,4.4-1.4,4.4-3.4c0-1.6-1.2-2.8-3.3-3.2
		l-3.8-0.8c-4.3-0.9-7.2-3.7-7.2-7.8c0-4.8,4.4-8.5,9.5-8.5c6.6,0,9.2,4,9.8,7.1L387,9z"/>
</g>
</svg>
