<?xml version="1.0" encoding="utf-8"?>
<!-- Generator: Adobe Illustrator 19.0.0, SVG Export Plug-In . SVG Version: 6.00 Build 0)  -->
<svg version="1.1" id="Layer_1" xmlns="http://www.w3.org/2000/svg" xmlns:xlink="http://www.w3.org/1999/xlink" x="0px" y="0px"
	 viewBox="0 0 22.9 20.4" style="enable-background:new 0 0 22.9 20.4;" xml:space="preserve">
<style type="text/css">
	.st0{fill:#434244;}
</style>
<g>
	<g>
		<path class="st0" d="M6.7,0.7c-1.6,0-3.1,0.6-4.2,1.7C1.4,3.6,0.8,5,0.8,6.6c0,1.3,0.4,2.5,1.2,3.6l8.3-8.2C9.3,1.2,8,0.7,6.7,0.7
			z"/>
	</g>
	<g>
		<path class="st0" d="M3.1,11.3l8.3,8.3l5.6-5.6c-0.3,0-0.6,0.1-0.9,0.1c-2,0-3.9-0.8-5.3-2.2c-1.4-1.4-2.2-3.3-2.2-5.3
			c0-0.3,0-0.6,0.1-0.9L3.1,11.3z"/>
	</g>
	<g>
		<path class="st0" d="M12.6,1.9l8.2,8.2c1.8-2.3,1.6-5.7-0.5-7.7c-1.1-1.1-2.6-1.7-4.2-1.7C14.9,0.7,13.6,1.2,12.6,1.9z"/>
	</g>
	<g>
		<path class="st0" d="M11.5,3.1c-0.8,1-1.2,2.3-1.2,3.6c0,1.6,0.6,3.1,1.7,4.2c1.1,1.1,2.6,1.7,4.2,1.7c1.3,0,2.5-0.4,3.6-1.2
			L11.5,3.1z"/>
	</g>
</g>
</svg>
